# xmcd
#
# Track frame offsets: 
#        150
#        19198
#        25137
#        38212
#        54996
#        66800
#        85851
#        95428
#        109261
#        130020
#        143252
#        160161
#
# Disc length: 2536 seconds
#
# Revision: 0
# Processed by: cddbd v1.5.2PL0 Copyright (c) Steve Scherf et al.
# Submitted via: ExactAudioCopy v0.99pb4
#
DISCID=8f09e60c
DTITLE=Various Artist - Esopus CD#10: Good News
DYEAR=2008
DGENRE=Alternative
TTITLE0=The Real Tuesday Weld - Love at the Hotel
TTITLE1=Neko Case and Carl Newman - Yon Ferrets Return
TTITLE2=Chris Rehm - Impendin' Recession
TTITLE3=Marnie Stern - Fathom Five
TTITLE4=Busdriver - I've Always Known
TTITLE5=Man Man - A Song for Liza Minnelli
TTITLE6=Langhorne Slim - Priceless
TTITLE7=Ryan Adams - A Song in the News
TTITLE8=Gowns - Butterfly Knife
TTITLE9=Catherine McRae - Boredom Arcades
TTITLE10=Atlas Sound - Sleeping Village Empty
TTITLE11=Artificial Workshop - Miracle Man
EXTD=
EXTT0=
EXTT1=
EXTT2=
EXTT3=
EXTT4=
EXTT5=
EXTT6=
EXTT7=
EXTT8=
EXTT9=
EXTT10=
EXTT11=
PLAYORDER=
